<!-- Source: https://icooon-mono.com/00434-free-clock-icon-part-2%e7%84%a1%e6%96%99%e3%81%ae%e6%99%82%e8%a8%88%e3%81%ae%e3%82%a2%e3%82%a4%e3%82%b3%e3%83%b3-2/ -->
<svg xmlns="http://www.w3.org/2000/svg" width="512" height="512">
  <path
    d="M256 0C114.84 0 0 114.844 0 256c0 141.164 114.84 256 256 256s256-114.836 256-256C512 114.844 397.16 0 256 0zm0 451.047c-107.547 0-195.047-87.492-195.047-195.047 0-107.547 87.5-195.047 195.047-195.047S451.047 148.453 451.047 256c0 107.555-87.5 195.047-195.047 195.047z"
  />
  <path
    d="M258.434 115.758c-12.81 0-23.195 10.383-23.195 23.195v105.008l-74.047 74.047c-9.061 9.054-9.061 23.742 0 32.804 9.058 9.055 23.744 9.055 32.804 0l87.635-87.633V138.953c0-12.812-10.385-23.195-23.197-23.195z"
  />
</svg>
